# xmcd
#
# Track frame offsets:
#	150
#	14658
#	28950
#	41940
#	53580
#	70529
#	81579
#	91292
#	102785
#	114950
#	127402
#	142057
#
# Disc length: 2149 seconds
#
# Revision: 1
# Processed by: cddbd v1.5.1PL0 Copyright (c) Steve Scherf et al.
# Submitted via: audiograbber 1.82.02
#
DISCID=ad08630c
DTITLE=Ian Blundell - Backbone Of The Country
DYEAR=1900
DGENRE=Country
TTITLE0=Old Desperado
TTITLE1=Outlaw
TTITLE2=My Angel Jodie
TTITLE3=Together All Our Lives
TTITLE4=Ribbons, Bows, Dolls and Teddybears
TTITLE5=Backbone Of The Country
TTITLE6=One Small Photograph
TTITLE7=I'm Tired Of Waiting Around
TTITLE8=Valley Of The Lord
TTITLE9=Just My Way Of Life
TTITLE10=Red River Valley
TTITLE11=Ghost Riders
EXTD=
EXTT0=
EXTT1=
EXTT2=
EXTT3=
EXTT4=
EXTT5=
EXTT6=
EXTT7=
EXTT8=
EXTT9=
EXTT10=
EXTT11=
PLAYORDER=
